<svg viewBox="0 0 85 81" fill="none" xmlns="http://www.w3.org/2000/svg">
<path d="M82.243 67.1951L41.7529 80.1049V28.1428L82.243 14.9102V67.1951Z" fill="#ECE8FF"/>
<path d="M1.26367 66.8738L41.7536 80.1064V28.1442L1.26367 15.2344V66.8738Z" fill="#F5F2FF"/>
<path d="M82.2429 14.9102V67.1951L41.7529 79.6428V28.1428" stroke="#DBD7EF" stroke-width="2"/>
<path d="M41.7527 2L1.2627 15.2326L41.7527 28.1425L82.2428 14.9097L41.7527 2Z" fill="#FBFBFF"/>
<path d="M1 15.0176L41.7531 2L81.1552 14.9384L41.7531 28.3795" stroke="#DBD7EF" stroke-width="2"/>
<path d="M41.4329 79.8656L1.26367 66.3672V15.2344L41.7483 28.3494" stroke="#DBD7EF" stroke-width="2"/>
<g filter="url(#filter0_dd_1549_17915)">
<path d="M36.3716 46.7008C36.4123 42.2748 42.1321 44.5627 42.0914 48.9886L42.0142 57.3774C41.9735 61.8034 36.2537 59.5155 36.2944 55.0896L36.3716 46.7008Z" fill="#DDD9EF"/>
</g>
<path d="M37.2461 48.0332C37.275 44.8879 41.0874 46.5137 41.0585 49.659L41.0415 51.5023C41.0126 54.6476 37.2002 53.0217 37.2291 49.8765L37.2461 48.0332Z" fill="#F9F9FA"/>
<defs>
<filter id="filter0_dd_1549_17915" x="36.2942" y="44.3125" width="7.79736" height="15.4531" filterUnits="userSpaceOnUse" color-interpolation-filters="sRGB">
<feFlood flood-opacity="0" result="BackgroundImageFix"/>
<feColorMatrix in="SourceAlpha" type="matrix" values="0 0 0 0 0 0 0 0 0 0 0 0 0 0 0 0 0 0 127 0" result="hardAlpha"/>
<feOffset dx="1"/>
<feComposite in2="hardAlpha" operator="out"/>
<feColorMatrix type="matrix" values="0 0 0 0 0 0 0 0 0 0 0 0 0 0 0 0 0 0 0.15 0"/>
<feBlend mode="normal" in2="BackgroundImageFix" result="effect1_dropShadow_1549_17915"/>
<feColorMatrix in="SourceAlpha" type="matrix" values="0 0 0 0 0 0 0 0 0 0 0 0 0 0 0 0 0 0 127 0" result="hardAlpha"/>
<feOffset dx="2"/>
<feComposite in2="hardAlpha" operator="out"/>
<feColorMatrix type="matrix" values="0 0 0 0 0.768977 0 0 0 0 0.75375 0 0 0 0 0.8375 0 0 0 1 0"/>
<feBlend mode="normal" in2="effect1_dropShadow_1549_17915" result="effect2_dropShadow_1549_17915"/>
<feBlend mode="normal" in="SourceGraphic" in2="effect2_dropShadow_1549_17915" result="shape"/>
</filter>
</defs>
</svg>
