<svg viewBox="0 0 110 138" fill="none" xmlns="http://www.w3.org/2000/svg">
<path d="M1.07711 122.587L43.3037 135.997V28.2864L1.07711 14.9766V122.587Z" fill="#F4F2FF"/>
<path d="M65.879 1.05469L108.306 14.7049L43.2258 28.388L0.999184 14.9774L65.879 1.05469Z" fill="#FBFBFF"/>
<path d="M108.276 122.236L43.3035 135.999V28.2204L108.276 14.6719V122.236Z" fill="#ECE8FF"/>
<path d="M43.3045 28.372L108.338 14.671M43.3045 28.372V135.998M43.3045 28.372L1.07324 14.9758M108.338 14.671V122.246L43.3045 135.998M108.338 14.671L65.8967 1.05469L1.07324 14.9758M43.3045 135.998L1.07324 122.653V14.9758" stroke="#DBD7EF" stroke-width="2"/>
<g filter="url(#filter0_d_1549_18006)">
<path d="M33.4832 73.3985C33.5524 65.877 43.2727 69.765 43.2035 77.2866L43.0723 91.5427C43.0031 99.0642 33.2828 95.1762 33.352 87.6546L33.4832 73.3985Z" fill="#DEDAEF"/>
</g>
<path d="M34.9696 75.6616C35.0187 70.3165 41.4975 73.0795 41.4483 78.4246L41.4195 81.5572C41.3703 86.9023 34.8915 84.1393 34.9407 78.7942L34.9696 75.6616Z" fill="#F9F9FA"/>
<defs>
<filter id="filter0_d_1549_18006" x="33.3516" y="69.3398" width="10.8523" height="26.2617" filterUnits="userSpaceOnUse" color-interpolation-filters="sRGB">
<feFlood flood-opacity="0" result="BackgroundImageFix"/>
<feColorMatrix in="SourceAlpha" type="matrix" values="0 0 0 0 0 0 0 0 0 0 0 0 0 0 0 0 0 0 127 0" result="hardAlpha"/>
<feOffset dx="1"/>
<feComposite in2="hardAlpha" operator="out"/>
<feColorMatrix type="matrix" values="0 0 0 0 0.700709 0 0 0 0 0.685017 0 0 0 0 0.779167 0 0 0 1 0"/>
<feBlend mode="normal" in2="BackgroundImageFix" result="effect1_dropShadow_1549_18006"/>
<feBlend mode="normal" in="SourceGraphic" in2="effect1_dropShadow_1549_18006" result="shape"/>
</filter>
</defs>
</svg>
