<svg viewBox="0 0 288 205" fill="none" xmlns="http://www.w3.org/2000/svg">
<path d="M16.0008 172.678L101.937 200.106L102.038 87.4598L16.1028 60.082L16.0008 172.678Z" fill="#F5F2FF"/>
<path d="M273.731 34.1926L102.006 87.5103L16.11 60.0811L187.835 6L273.731 34.1926Z" fill="#FBFBFF"/>
<path d="M273.731 34.3047V143.857L101.937 200.104L102.006 87.5072L273.731 34.3047Z" fill="#ECE8FF"/>
<path d="M101.822 200.104L274 143.959V34.3421M101.822 200.104V87.2789M101.822 200.104L59.0448 186.469M16.2676 59.7411V172.833L59.0448 186.469M16.2676 59.7411L187.644 6.26953L274 34.3421M16.2676 59.7411L59.0448 73.51M274 34.3421L101.822 87.2789M101.822 87.2789L59.0448 73.51M59.0448 73.51V186.469" stroke="#DBD7EF" stroke-width="3"/>
<g filter="url(#filter0_d_1549_18301)">
<path d="M54.1673 122.743C54.2355 115.322 63.8263 119.158 63.758 126.579L63.6285 140.645C63.5602 148.066 53.9695 144.23 54.0378 136.809L54.1673 122.743Z" fill="#DDD9EF"/>
</g>
<path d="M55.6349 124.979C55.6835 119.705 62.0759 122.431 62.0273 127.705L61.9989 130.796C61.9504 136.069 55.558 133.343 55.6065 128.069L55.6349 124.979Z" fill="#F9F9FA"/>
<defs>
<filter id="filter0_d_1549_18301" x="54.0374" y="118.738" width="12.7209" height="25.9102" filterUnits="userSpaceOnUse" color-interpolation-filters="sRGB">
<feFlood flood-opacity="0" result="BackgroundImageFix"/>
<feColorMatrix in="SourceAlpha" type="matrix" values="0 0 0 0 0 0 0 0 0 0 0 0 0 0 0 0 0 0 127 0" result="hardAlpha"/>
<feOffset dx="3"/>
<feComposite in2="hardAlpha" operator="out"/>
<feColorMatrix type="matrix" values="0 0 0 0 0.768627 0 0 0 0 0.752941 0 0 0 0 0.839216 0 0 0 1 0"/>
<feBlend mode="normal" in2="BackgroundImageFix" result="effect1_dropShadow_1549_18301"/>
<feBlend mode="normal" in="SourceGraphic" in2="effect1_dropShadow_1549_18301" result="shape"/>
</filter>
</defs>
</svg>
