<svg viewBox="0 0 117 137" fill="none" xmlns="http://www.w3.org/2000/svg">
<path d="M77.1595 2L115.177 14.8875L39.1224 38.7464L1.00041 26.3258C1.00041 26.3258 58.6109 7.9561 77.1595 2Z" fill="#FBFBFF"/>
<path d="M115.177 15.1211V111.394L39.0592 135.859V38.5925L115.177 15.1211Z" fill="#ECE8FF"/>
<path d="M39.0596 39.092L1.00079 26.9336V123.77L39.0596 135.86V39.092Z" fill="#F5F2FF"/>
<path d="M39.116 38.2642L39.1832 135.862M39.116 38.2642L115.176 14.7356M39.116 38.2642L1 26.0273M39.1832 135.862L115.176 111.28V14.7356M39.1832 135.862L1 123.655V26.0273M115.176 14.7356L77.232 2L1 26.0273" stroke="#DBD7EF" stroke-width="2"/>
<g filter="url(#filter0_d_1549_18157)">
<path d="M30.9711 78.1274C31.0319 71.521 39.5695 74.9359 39.5087 81.5423L39.3935 94.0638C39.3327 100.67 30.7951 97.2553 30.8559 90.6489L30.9711 78.1274Z" fill="#DDD9EF"/>
</g>
<path d="M32.2765 80.1154C32.3197 75.4206 38.0102 77.8474 37.967 82.5422L37.9417 85.2936C37.8985 89.9884 32.208 87.5615 32.2512 82.8668L32.2765 80.1154Z" fill="#F9F9FA"/>
<defs>
<filter id="filter0_d_1549_18157" x="30.8555" y="74.5625" width="11.6536" height="23.0664" filterUnits="userSpaceOnUse" color-interpolation-filters="sRGB">
<feFlood flood-opacity="0" result="BackgroundImageFix"/>
<feColorMatrix in="SourceAlpha" type="matrix" values="0 0 0 0 0 0 0 0 0 0 0 0 0 0 0 0 0 0 127 0" result="hardAlpha"/>
<feOffset dx="3"/>
<feComposite in2="hardAlpha" operator="out"/>
<feColorMatrix type="matrix" values="0 0 0 0 0.768627 0 0 0 0 0.752941 0 0 0 0 0.839216 0 0 0 1 0"/>
<feBlend mode="normal" in2="BackgroundImageFix" result="effect1_dropShadow_1549_18157"/>
<feBlend mode="normal" in="SourceGraphic" in2="effect1_dropShadow_1549_18157" result="shape"/>
</filter>
</defs>
</svg>
