<svg width="1366" height="197" viewBox="0 0 1366 197" fill="none" xmlns="http://www.w3.org/2000/svg">
<path d="M0.5 32C0.5 14.3269 14.8269 0 32.5 0H284.736C294.902 0 304.463 4.83048 310.495 13.0138L353.259 71.0327C357.313 76.5328 359.5 83.1861 359.5 90.0188V307C359.5 324.673 345.173 339 327.5 339H32.5C14.8269 339 0.5 324.673 0.5 307V32Z" fill="url(#paint0_linear_1292_1858)"/>
<path d="M672.5 339C690.173 339 704.656 324.642 703 307.047C699.841 273.486 691.717 240.525 678.847 209.27C661.912 168.141 637.088 130.77 605.795 99.2908C574.502 67.8117 537.351 42.8412 496.464 25.8048C465.452 12.8827 432.75 4.71732 399.452 1.52711C381.859 -0.158376 367.5 14.3269 367.5 32V307C367.5 324.673 381.827 339 399.5 339H672.5Z" fill="url(#paint1_linear_1292_1858)"/>
<circle cx="850" cy="169.5" r="169.5" fill="url(#paint2_linear_1292_1858)"/>
<rect x="1027.5" width="338" height="339" rx="32" fill="url(#paint3_linear_1292_1858)"/>
<defs>
<linearGradient id="paint0_linear_1292_1858" x1="180" y1="0" x2="180" y2="339" gradientUnits="userSpaceOnUse">
<stop stop-color="white"/>
<stop offset="1" stop-color="white" stop-opacity="0"/>
</linearGradient>
<linearGradient id="paint1_linear_1292_1858" x1="536" y1="0" x2="536" y2="339" gradientUnits="userSpaceOnUse">
<stop stop-color="white"/>
<stop offset="1" stop-color="white" stop-opacity="0"/>
</linearGradient>
<linearGradient id="paint2_linear_1292_1858" x1="850" y1="0" x2="850" y2="339" gradientUnits="userSpaceOnUse">
<stop stop-color="white"/>
<stop offset="1" stop-color="white" stop-opacity="0"/>
</linearGradient>
<linearGradient id="paint3_linear_1292_1858" x1="1196.5" y1="0" x2="1196.5" y2="339" gradientUnits="userSpaceOnUse">
<stop stop-color="white"/>
<stop offset="1" stop-color="white" stop-opacity="0"/>
</linearGradient>
</defs>
</svg>
