<svg width="37" height="38" viewBox="0 0 37 38" fill="none" xmlns="http://www.w3.org/2000/svg">
<path d="M27.5835 37.125H8.73824C3.71629 37.125 0 33.4161 0 28.404V9.59599C0 4.58395 3.71629 0.875 8.73824 0.875H27.5835C32.4085 0.875 36.3217 4.58395 36.3217 9.59599V28.404C36.3217 33.4161 32.6054 37.125 27.5835 37.125Z" fill="#0AA85F"/>
<path fill-rule="evenodd" clip-rule="evenodd" d="M18.2559 9.28027L27.9677 13.0783V21.863C27.9677 23.8164 26.7533 25.5654 24.9209 26.2443L18.2558 28.7136L8.354 25.119V13.0747L18.2559 9.28027ZM9.80687 14.595V24.1035L17.5268 26.906V17.2938L9.80687 14.595ZM18.9796 17.2903V26.8988L24.4153 24.8849C25.6758 24.4179 26.5149 23.2129 26.5149 21.863V14.602L18.9796 17.2903ZM25.1705 13.5418L18.2507 16.0105L11.1886 13.5417L18.2505 10.8355L25.1705 13.5418Z" fill="white"/>
</svg>
