<svg width="219" height="41" viewBox="0 0 219 41" fill="none" xmlns="http://www.w3.org/2000/svg">
<path d="M31.4624 41H9.96706C4.23889 41 0 36.805 0 31.1363V9.86374C0 4.19495 4.23889 0 9.96706 0H31.4624C36.966 0 41.4295 4.19495 41.4295 9.86374V31.1363C41.4295 36.805 37.1906 41 31.4624 41Z" fill="#0AA85F"/>
<path d="M31.0719 14.3604V23.7367C31.0719 25.6048 29.9008 27.2753 28.1368 27.9234L20.8199 30.6114L10.3572 26.8451V14.3604L20.8199 10.3848L31.0719 14.3604Z" fill="#0AA85F"/>
<path fill-rule="evenodd" clip-rule="evenodd" d="M20.8231 9.50781L31.9007 13.8035V23.7393C31.9007 25.9487 30.5155 27.9268 28.4254 28.6947L20.823 31.4876L9.52881 27.4219V13.7994L20.8231 9.50781ZM11.186 15.519V26.2734L19.9915 29.4432V18.5714L11.186 15.519ZM21.6487 18.5675V29.4349L27.8487 27.1572C29.2865 26.629 30.2435 25.2661 30.2435 23.7393V15.5269L21.6487 18.5675ZM28.7102 14.3277L20.8173 17.1199L12.762 14.3276L20.817 11.2669L28.7102 14.3277Z" fill="white"/>
<path d="M54.658 35.4659V6.24105H59.6003V19.7981L71.3921 6.24105H77.4624L64.7682 20.5693L78.3237 35.4659H72.0484L59.6003 21.8276V35.4659H54.658Z" fill="#1E1E1E"/>
<path d="M89.8341 36.0747C87.5919 36.0747 85.6232 35.5944 83.9279 34.6338C82.2326 33.6731 80.9065 32.3404 79.9494 30.6356C79.0061 28.9309 78.5344 26.969 78.5344 24.7501C78.5344 22.3553 78.9992 20.2784 79.9289 18.5195C80.8586 16.7471 82.1506 15.3738 83.8049 14.3996C85.4591 13.4255 87.3732 12.9384 89.547 12.9384C91.8438 12.9384 93.7921 13.4728 95.3916 14.5417C97.0049 15.597 98.2012 17.0921 98.9805 19.0269C99.7598 20.9617 100.054 23.2415 99.8623 25.8663H94.961V24.0804C94.9473 21.6991 94.5235 19.9605 93.6895 18.8645C92.8555 17.7686 91.5431 17.2206 89.7521 17.2206C87.7286 17.2206 86.2248 17.843 85.2404 19.0878C84.256 20.319 83.7638 22.1253 83.7638 24.5065C83.7638 26.7255 84.256 28.4438 85.2404 29.6615C86.2248 30.8792 87.6603 31.488 89.547 31.488C90.7638 31.488 91.8097 31.2242 92.6846 30.6965C93.5733 30.1553 94.2569 29.3773 94.7354 28.3626L99.6162 29.8238C98.7686 31.7992 97.4561 33.3349 95.6787 34.4308C93.9151 35.5267 91.9669 36.0747 89.8341 36.0747ZM82.2053 25.8663V22.1726H97.4424V25.8663H82.2053Z" fill="#1E1E1E"/>
<path d="M114.464 11.0713C113.329 11.0713 112.29 10.7939 111.347 10.2392C110.404 9.68444 109.652 8.94705 109.091 8.02701C108.531 7.09344 108.25 6.05839 108.25 4.92188H112.106C112.106 5.57132 112.331 6.12605 112.783 6.58607C113.247 7.03256 113.808 7.2558 114.464 7.2558C115.12 7.2558 115.674 7.03256 116.125 6.58607C116.59 6.12605 116.823 5.57132 116.823 4.92188H120.678C120.678 6.05839 120.398 7.09344 119.837 8.02701C119.277 8.94705 118.525 9.68444 117.581 10.2392C116.638 10.7939 115.599 11.0713 114.464 11.0713ZM123.426 13.5473V35.4659H118.689V21.1579L108.148 35.4659H104.19V13.5473H108.927V27.4899L119.509 13.5473H123.426Z" fill="#1E1E1E"/>
<path d="M138.185 36.1153C136.08 36.0882 134.289 35.6214 132.812 34.7149C131.336 33.8084 130.18 32.5298 129.346 30.8792C128.512 29.2285 128.007 27.2802 127.829 25.0342C127.747 23.8842 127.74 22.5988 127.808 21.1782C127.877 19.7575 128.027 18.3707 128.26 17.0177C128.492 15.6647 128.813 14.5146 129.223 13.5675C129.647 12.6204 130.201 11.7478 130.885 10.9495C131.568 10.1377 132.306 9.46119 133.099 8.91999C134.002 8.29761 134.979 7.8173 136.032 7.47905C137.098 7.1408 138.213 6.88373 139.375 6.70784C140.537 6.51842 141.733 6.34929 142.964 6.20046C144.194 6.05163 145.411 5.86221 146.614 5.6322L147.065 9.95504C146.299 10.1445 145.411 10.2933 144.399 10.4015C143.401 10.4962 142.362 10.6045 141.282 10.7262C140.215 10.848 139.197 11.0239 138.226 11.2539C137.256 11.4839 136.415 11.8222 135.704 12.2687C134.719 12.864 133.968 13.7164 133.448 14.8258C132.928 15.9353 132.621 17.1056 132.525 18.3369C133.373 17.0921 134.426 16.2194 135.683 15.7188C136.955 15.2047 138.24 14.9476 139.539 14.9476C141.507 14.9476 143.196 15.4076 144.604 16.3277C146.026 17.2477 147.113 18.4992 147.865 20.0822C148.63 21.6517 149.013 23.4039 149.013 25.3386C149.013 27.5034 148.555 29.3976 147.639 31.0212C146.723 32.6448 145.452 33.9031 143.825 34.7961C142.198 35.6891 140.318 36.1288 138.185 36.1153ZM138.431 31.5286C140.209 31.5286 141.548 30.9874 142.451 29.905C143.367 28.8091 143.825 27.3546 143.825 25.5416C143.825 23.688 143.353 22.2267 142.41 21.1579C141.48 20.089 140.154 19.5546 138.431 19.5546C136.681 19.5546 135.348 20.089 134.432 21.1579C133.516 22.2267 133.058 23.688 133.058 25.5416C133.058 27.4358 133.523 28.9106 134.453 29.9659C135.383 31.0077 136.709 31.5286 138.431 31.5286Z" fill="#1E1E1E"/>
<path d="M163.105 36.0747C160.891 36.0747 158.956 35.5809 157.302 34.5932C155.647 33.6055 154.362 32.2457 153.446 30.5139C152.544 28.7685 152.093 26.7661 152.093 24.5065C152.093 22.2064 152.558 20.1905 153.487 18.4586C154.417 16.7268 155.709 15.3738 157.363 14.3996C159.017 13.4255 160.932 12.9384 163.105 12.9384C165.334 12.9384 167.275 13.4322 168.929 14.4199C170.584 15.4076 171.869 16.7742 172.785 18.5195C173.701 20.2514 174.159 22.247 174.159 24.5065C174.159 26.7796 173.694 28.7888 172.764 30.5342C171.848 32.266 170.563 33.6258 168.909 34.6135C167.255 35.5876 165.32 36.0747 163.105 36.0747ZM163.105 31.488C165.074 31.488 166.537 30.8386 167.494 29.5397C168.451 28.2408 168.929 26.5631 168.929 24.5065C168.929 22.3823 168.444 20.6911 167.473 19.4328C166.503 18.161 165.047 17.5251 163.105 17.5251C161.779 17.5251 160.685 17.8227 159.824 18.4181C158.976 18.9998 158.348 19.8184 157.937 20.8737C157.527 21.9156 157.322 23.1265 157.322 24.5065C157.322 26.6308 157.808 28.3288 158.778 29.6006C159.763 30.8589 161.205 31.488 163.105 31.488Z" fill="#1E1E1E"/>
<path d="M178.015 35.4659L178.056 13.5473H183.06V24.1007L191.16 13.5473H197.333L188.74 24.5065L198.071 35.4659H191.529L183.06 24.9124V35.4659H178.015Z" fill="#1E1E1E"/>
<path d="M209.136 36.0747C206.853 36.0747 204.905 35.5741 203.291 34.5729C201.678 33.5581 200.441 32.1781 199.579 30.4327C198.732 28.6873 198.301 26.7119 198.287 24.5065C198.301 22.2606 198.745 20.2717 199.62 18.5398C200.509 16.7944 201.767 15.4279 203.394 14.4402C205.021 13.439 206.955 12.9384 209.197 12.9384C211.713 12.9384 213.839 13.5675 215.575 14.8258C217.325 16.0706 218.467 17.7754 219 19.9402L214.078 21.2594C213.695 20.0822 213.06 19.169 212.171 18.5195C211.282 17.8566 210.271 17.5251 209.136 17.5251C207.851 17.5251 206.791 17.8295 205.957 18.4383C205.123 19.0337 204.508 19.859 204.112 20.9143C203.715 21.9697 203.517 23.1671 203.517 24.5065C203.517 26.5902 203.989 28.2747 204.932 29.56C205.875 30.8454 207.277 31.488 209.136 31.488C210.448 31.488 211.481 31.1904 212.233 30.5951C212.998 29.9997 213.572 29.1406 213.955 28.0176L219 29.1338C218.316 31.3663 217.12 33.0846 215.411 34.2887C213.702 35.4794 211.611 36.0747 209.136 36.0747Z" fill="#1E1E1E"/>
</svg>
