<svg width="288" height="181" viewBox="0 0 288 181" fill="none" xmlns="http://www.w3.org/2000/svg">
<g clip-path="url(#clip0_1549_18577)">
<path d="M0 16C0 7.16342 7.16344 0 16 0H258C274.569 0 288 13.4315 288 30V165C288 173.837 280.837 181 272 181H61.7317C53.3023 181 45.2618 177.454 39.5779 171.229L35.5882 166.86C31.7096 162.612 26.2231 160.192 20.4711 160.192C9.16523 160.192 0 151.027 0 139.721V16Z" fill="#ECE8FF"/>
<path d="M269 197.82L212.5 230.015V103.075L269 71.1953V197.82Z" fill="#6349DB"/>
<path d="M212.184 39L156 71.5112L212.5 103.707L269 71.1955L212.184 39Z" fill="#A393EC"/>
<path d="M156.316 190.494L212.5 222.69V103.707L156 71.5117L156.316 190.494Z" fill="#7965DC"/>
</g>
<defs>
<clipPath id="clip0_1549_18577">
<rect width="288" height="181" rx="32" fill="white"/>
</clipPath>
</defs>
</svg>
