<svg width="433" height="247" viewBox="0 0 433 247" fill="none" xmlns="http://www.w3.org/2000/svg">
<g clip-path="url(#clip0_1285_685)">
<path d="M0.228516 16C0.228516 7.16343 7.39196 0 16.2285 0H402.229C418.797 0 432.229 13.4315 432.229 30V231C432.229 239.837 425.065 247 416.229 247H87.1198C76.1106 247 65.9857 240.97 60.7418 231.29L49.1071 209.813C44.5607 201.42 35.7827 196.192 26.2379 196.192C11.8733 196.192 0.228516 184.547 0.228516 170.183V16Z" fill="#ECE8FF"/>
<path d="M400.229 268.238L318.729 314.679V131.57L400.229 85.5842V268.238Z" fill="#6349DB"/>
<path d="M318.273 39.1416L237.229 86.0384L318.729 132.48L400.229 85.5831L318.273 39.1416Z" fill="#A393EC"/>
<path d="M237.684 257.669L318.729 304.111V132.48L237.229 86.0388L237.684 257.669Z" fill="#7965DC"/>
</g>
<defs>
<clipPath id="clip0_1285_685">
<rect x="0.228516" width="432" height="247" rx="32" fill="white"/>
</clipPath>
</defs>
</svg>
