<svg width="20" height="20" viewBox="0 0 20 20" fill="none" xmlns="http://www.w3.org/2000/svg">
<path d="M15.8327 8.63636C15.8327 13.4091 9.99935 17.5 9.99935 17.5C9.99935 17.5 4.16602 13.4091 4.16602 8.63636C4.16602 7.0089 4.7806 5.44809 5.87456 4.2973C6.96852 3.14651 8.45225 2.5 9.99935 2.5C11.5464 2.5 13.0302 3.14651 14.1241 4.2973C15.2181 5.44809 15.8327 7.0089 15.8327 8.63636Z" stroke="#3A3A3C" stroke-width="1.5" stroke-linecap="round" stroke-linejoin="round"/>
<path d="M9.99935 10.8346C11.1499 10.8346 12.0827 9.9019 12.0827 8.7513C12.0827 7.60071 11.1499 6.66797 9.99935 6.66797C8.84876 6.66797 7.91602 7.60071 7.91602 8.7513C7.91602 9.9019 8.84876 10.8346 9.99935 10.8346Z" stroke="#3A3A3C" stroke-width="1.5" stroke-linecap="round" stroke-linejoin="round"/>
</svg>
