<svg width="288" height="181" viewBox="0 0 288 181" fill="none" xmlns="http://www.w3.org/2000/svg">
<g clip-path="url(#clip0_1549_18586)">
<path d="M0 16C0 7.16345 7.16344 0 16 0H230.734C238.595 0 246.143 3.08597 251.752 8.59398L299.019 55.0048C304.764 60.6459 308 68.3594 308 76.4109L308 165C308 173.837 300.837 181 292 181H30C13.4315 181 0 167.569 0 151V16Z" fill="#ECE8FF"/>
<path d="M269 197.952L212.5 230.148V103.208L269 71.3281V197.952Z" fill="#7965DC" fill-opacity="0.1"/>
<path d="M212.184 39.1328L156 71.6439L212.5 103.839L269 71.3283L212.184 39.1328Z" fill="#7965DC" fill-opacity="0.1"/>
<path d="M156.316 190.627L212.5 222.822V103.84L156 71.6445L156.316 190.627Z" fill="#7965DC" fill-opacity="0.1"/>
<path d="M156 71.6478L212.184 39.1367L269 71.3322L212.5 103.218M156 71.6478L212.5 103.218M156 71.6478V197.792L212.5 230.148L212.5 103.218M212.5 230.153L269 197.957V71.3329L212.5 103.213V230.153Z" stroke="#6349DB" stroke-opacity="0.5" stroke-width="1.5"/>
</g>
<defs>
<clipPath id="clip0_1549_18586">
<rect width="288" height="181" rx="32" fill="white"/>
</clipPath>
</defs>
</svg>
