<svg width="288" height="181" viewBox="0 0 288 181" fill="none" xmlns="http://www.w3.org/2000/svg">
<g clip-path="url(#clip0_1549_18565)">
<path d="M258 181H16C7.16344 181 0 173.837 0 165V59.6729C0 45.9403 11.1325 34.8078 24.865 34.8078H26.0504C36.6526 34.8078 45.9214 27.6585 48.6138 17.4039C51.3063 7.14935 60.5751 0 71.1773 0H272C280.837 0 288 7.16344 288 16V151C288 167.569 274.569 181 258 181Z" fill="#ECE8FF"/>
<path d="M268.906 197.692L212.453 229.861V103.025L268.906 71.1719V197.692Z" fill="#6349DB" fill-opacity="0.1"/>
<path d="M212.138 39L156 71.4843L212.453 103.653L268.907 71.1689L212.138 39Z" fill="#A393EC"/>
<path d="M156.315 190.369L212.453 222.538V103.653L156 71.4844L156.315 190.369Z" fill="#7965DC" fill-opacity="0.1"/>
</g>
<defs>
<clipPath id="clip0_1549_18565">
<rect width="288" height="181" rx="16" fill="white"/>
</clipPath>
</defs>
</svg>
