<svg width="433" height="247" viewBox="0 0 433 247" fill="none" xmlns="http://www.w3.org/2000/svg">
<g clip-path="url(#clip0_1285_676)">
<path d="M29.2285 247H416.229C425.065 247 432.229 239.837 432.229 231V82.9449C432.229 67.4052 419.631 54.8078 404.091 54.8078C393.687 54.8078 384.132 49.0662 379.247 39.8794L366.507 15.9169C361.3 6.12178 351.112 0 340.018 0H15.2285C6.39197 0 -0.771484 7.16345 -0.771484 16V217C-0.771484 233.569 12.66 247 29.2285 247Z" fill="#ECE8FF"/>
<path d="M400.229 268.238L318.729 314.679V131.57L400.229 85.5842V268.238Z" fill="#6349DB" fill-opacity="0.1"/>
<path d="M318.273 39.1416L237.229 86.0384L318.729 132.48L400.229 85.5831L318.273 39.1416Z" fill="#A393EC"/>
<path d="M237.684 257.669L318.729 304.111V132.48L237.229 86.0388L237.684 257.669Z" fill="#7965DC" fill-opacity="0.1"/>
</g>
<defs>
<clipPath id="clip0_1285_676">
<rect x="0.228516" width="432" height="247" rx="32" fill="white"/>
</clipPath>
</defs>
</svg>
