<svg width="39" height="50" viewBox="0 0 39 50" fill="none" xmlns="http://www.w3.org/2000/svg">
<g clip-path="url(#clip0_1549_17335)">
<ellipse cx="19.8391" cy="48" rx="11" ry="2" fill="#C7C7CC" fill-opacity="0.6"/>
<path d="M38.8391 19.6364C38.8391 34.9091 19.8391 48 19.8391 48C19.8391 48 0.839111 34.9091 0.839111 19.6364C0.839111 14.4285 2.84089 9.43389 6.40408 5.75136C9.96727 2.06883 14.8 0 19.8391 0C24.8782 0 29.7109 2.06883 33.2741 5.75136C36.8373 9.43389 38.8391 14.4285 38.8391 19.6364Z" fill="#0AA85F"/>
<circle cx="19.8391" cy="19" r="18.5" fill="white" stroke="#0AA85F"/>
<path d="M10.3391 22.99V21.94L13.4191 19.195C13.6591 18.9817 13.8258 18.78 13.9191 18.59C14.0124 18.4 14.0591 18.2167 14.0591 18.04C14.0591 17.8 14.0074 17.5867 13.9041 17.4C13.8008 17.21 13.6574 17.06 13.4741 16.95C13.2941 16.84 13.0858 16.785 12.8491 16.785C12.5991 16.785 12.3774 16.8433 12.1841 16.96C11.9941 17.0733 11.8458 17.225 11.7391 17.415C11.6324 17.605 11.5824 17.81 11.5891 18.03H10.3491C10.3491 17.55 10.4558 17.1317 10.6691 16.775C10.8858 16.4183 11.1824 16.1417 11.5591 15.945C11.9391 15.7483 12.3774 15.65 12.8741 15.65C13.3341 15.65 13.7474 15.7533 14.1141 15.96C14.4808 16.1633 14.7691 16.4467 14.9791 16.81C15.1891 17.17 15.2941 17.585 15.2941 18.055C15.2941 18.3983 15.2474 18.6867 15.1541 18.92C15.0608 19.1533 14.9208 19.3683 14.7341 19.565C14.5508 19.7617 14.3224 19.98 14.0491 20.22L11.8641 22.155L11.7541 21.855H15.2941V22.99H10.3391ZM18.7908 23V21.81H15.6008V20.685L17.9058 15.8H19.2808L16.9758 20.685H18.7908V18.81H20.0108V20.685H20.6858V21.81H20.0108V23H18.7908ZM23.2048 15.8H24.4148L22.4948 23H21.2848L23.2048 15.8ZM25.576 23L28.056 16.94H24.911V15.8H29.346V16.94L26.876 23H25.576Z" fill="#3A3A3C"/>
</g>
<defs>
<clipPath id="clip0_1549_17335">
<rect width="38" height="50" fill="white" transform="translate(0.839111)"/>
</clipPath>
</defs>
</svg>
