<svg width="90" height="51" viewBox="0 0 90 51" fill="none" xmlns="http://www.w3.org/2000/svg">
<ellipse cx="45.8391" cy="48" rx="11" ry="3" fill="#C7C7CC" fill-opacity="0.6"/>
<path d="M64.8391 19.6364C64.8391 34.9091 45.8391 48 45.8391 48C45.8391 48 26.8391 34.9091 26.8391 19.6364C26.8391 14.4285 28.8409 9.43389 32.4041 5.75136C35.9673 2.06883 40.8 0 45.8391 0C50.8782 0 55.7109 2.06883 59.2741 5.75136C62.8373 9.43389 64.8391 14.4285 64.8391 19.6364Z" fill="#6349DB"/>
<rect x="2.33911" y="0.5" width="86" height="35" rx="17.5" fill="white"/>
<path d="M14.5841 22.15C13.8641 22.15 13.2474 21.9933 12.7341 21.68C12.2208 21.3633 11.8258 20.9233 11.5491 20.36C11.2758 19.7967 11.1391 19.1433 11.1391 18.4C11.1391 17.6567 11.2758 17.0033 11.5491 16.44C11.8258 15.8767 12.2208 15.4383 12.7341 15.125C13.2474 14.8083 13.8641 14.65 14.5841 14.65C15.4141 14.65 16.1058 14.8583 16.6591 15.275C17.2124 15.6883 17.6008 16.2467 17.8241 16.95L16.6091 17.285C16.4691 16.815 16.2308 16.4483 15.8941 16.185C15.5574 15.9183 15.1208 15.785 14.5841 15.785C14.1008 15.785 13.6974 15.8933 13.3741 16.11C13.0541 16.3267 12.8124 16.6317 12.6491 17.025C12.4891 17.415 12.4074 17.8733 12.4041 18.4C12.4041 18.9267 12.4841 19.3867 12.6441 19.78C12.8074 20.17 13.0508 20.4733 13.3741 20.69C13.6974 20.9067 14.1008 21.015 14.5841 21.015C15.1208 21.015 15.5574 20.8817 15.8941 20.615C16.2308 20.3483 16.4691 19.9817 16.6091 19.515L17.8241 19.85C17.6008 20.5533 17.2124 21.1133 16.6591 21.53C16.1058 21.9433 15.4141 22.15 14.5841 22.15ZM22.2489 14.66C22.7189 14.66 23.1422 14.7717 23.5189 14.995C23.8955 15.215 24.1922 15.5217 24.4089 15.915C24.6289 16.305 24.7389 16.755 24.7389 17.265V19.46C24.7389 20.0033 24.6289 20.4783 24.4089 20.885C24.1922 21.2883 23.8872 21.6 23.4939 21.82C23.1005 22.04 22.6405 22.15 22.1139 22.15C21.7505 22.15 21.4072 22.0883 21.0839 21.965C20.7605 21.8383 20.4705 21.645 20.2139 21.385L21.0789 20.54C21.2089 20.69 21.3639 20.8083 21.5439 20.895C21.7272 20.9783 21.9172 21.02 22.1139 21.02C22.3939 21.02 22.6389 20.955 22.8489 20.825C23.0589 20.6917 23.2222 20.52 23.3389 20.31C23.4555 20.0967 23.5139 19.8683 23.5139 19.625V18.43L23.7289 18.67C23.5255 18.91 23.2789 19.0983 22.9889 19.235C22.6989 19.3683 22.3939 19.435 22.0739 19.435C21.6239 19.435 21.2239 19.3317 20.8739 19.125C20.5272 18.9183 20.2539 18.6383 20.0539 18.285C19.8572 17.9283 19.7589 17.525 19.7589 17.075C19.7589 16.625 19.8722 16.2183 20.0989 15.855C20.3255 15.4883 20.6272 15.1983 21.0039 14.985C21.3839 14.7683 21.7989 14.66 22.2489 14.66ZM22.2489 15.81C22.0155 15.81 21.8022 15.8667 21.6089 15.98C21.4155 16.0933 21.2622 16.2467 21.1489 16.44C21.0355 16.63 20.9789 16.8417 20.9789 17.075C20.9789 17.3083 21.0339 17.5217 21.1439 17.715C21.2572 17.9083 21.4089 18.0617 21.5989 18.175C21.7922 18.2883 22.0055 18.345 22.2389 18.345C22.4722 18.345 22.6855 18.2883 22.8789 18.175C23.0722 18.0617 23.2255 17.9083 23.3389 17.715C23.4555 17.5217 23.5139 17.3083 23.5139 17.075C23.5139 16.8483 23.4572 16.64 23.3439 16.45C23.2305 16.2567 23.0772 16.1017 22.8839 15.985C22.6939 15.8683 22.4822 15.81 22.2489 15.81ZM26.0348 21.35V20.115H27.2698V21.35H26.0348ZM26.0448 18.485V17.25H27.2798V18.485H26.0448ZM31.1525 22.15C30.6425 22.15 30.1925 22.0417 29.8025 21.825C29.4125 21.605 29.1075 21.3 28.8875 20.91C28.6709 20.52 28.5625 20.07 28.5625 19.56V17.24C28.5625 16.73 28.6709 16.28 28.8875 15.89C29.1075 15.5 29.4125 15.1967 29.8025 14.98C30.1925 14.76 30.6425 14.65 31.1525 14.65C31.6625 14.65 32.1109 14.76 32.4975 14.98C32.8875 15.1967 33.1925 15.5 33.4125 15.89C33.6325 16.28 33.7425 16.73 33.7425 17.24V19.56C33.7425 20.07 33.6325 20.52 33.4125 20.91C33.1925 21.3 32.8875 21.605 32.4975 21.825C32.1109 22.0417 31.6625 22.15 31.1525 22.15ZM31.1525 21.005C31.4059 21.005 31.6359 20.945 31.8425 20.825C32.0492 20.7017 32.2125 20.5383 32.3325 20.335C32.4525 20.1283 32.5125 19.8983 32.5125 19.645V17.15C32.5125 16.8933 32.4525 16.6633 32.3325 16.46C32.2125 16.2533 32.0492 16.09 31.8425 15.97C31.6359 15.8467 31.4059 15.785 31.1525 15.785C30.8992 15.785 30.6692 15.8467 30.4625 15.97C30.2559 16.09 30.0925 16.2533 29.9725 16.46C29.8525 16.6633 29.7925 16.8933 29.7925 17.15V19.645C29.7925 19.8983 29.8525 20.1283 29.9725 20.335C30.0925 20.5383 30.2559 20.7017 30.4625 20.825C30.6692 20.945 30.8992 21.005 31.1525 21.005ZM37.2346 22.15C36.7246 22.15 36.2746 22.0417 35.8846 21.825C35.4946 21.605 35.1896 21.3 34.9696 20.91C34.7529 20.52 34.6446 20.07 34.6446 19.56V17.24C34.6446 16.73 34.7529 16.28 34.9696 15.89C35.1896 15.5 35.4946 15.1967 35.8846 14.98C36.2746 14.76 36.7246 14.65 37.2346 14.65C37.7446 14.65 38.1929 14.76 38.5796 14.98C38.9696 15.1967 39.2746 15.5 39.4946 15.89C39.7146 16.28 39.8246 16.73 39.8246 17.24V19.56C39.8246 20.07 39.7146 20.52 39.4946 20.91C39.2746 21.3 38.9696 21.605 38.5796 21.825C38.1929 22.0417 37.7446 22.15 37.2346 22.15ZM37.2346 21.005C37.4879 21.005 37.7179 20.945 37.9246 20.825C38.1312 20.7017 38.2946 20.5383 38.4146 20.335C38.5346 20.1283 38.5946 19.8983 38.5946 19.645V17.15C38.5946 16.8933 38.5346 16.6633 38.4146 16.46C38.2946 16.2533 38.1312 16.09 37.9246 15.97C37.7179 15.8467 37.4879 15.785 37.2346 15.785C36.9812 15.785 36.7512 15.8467 36.5446 15.97C36.3379 16.09 36.1746 16.2533 36.0546 16.46C35.9346 16.6633 35.8746 16.8933 35.8746 17.15V19.645C35.8746 19.8983 35.9346 20.1283 36.0546 20.335C36.1746 20.5383 36.3379 20.7017 36.5446 20.825C36.7512 20.945 36.9812 21.005 37.2346 21.005ZM41.8286 23.2V21.055C42.1219 21.055 42.3302 20.955 42.4536 20.755C42.5769 20.555 42.6752 20.2083 42.7486 19.715C42.7952 19.4217 42.8336 19.1117 42.8636 18.785C42.8936 18.4583 42.9186 18.1133 42.9386 17.75C42.9619 17.3867 42.9819 17.0033 42.9986 16.6H47.0186V21.055H47.5636V23.2H46.4236V22H42.9636V23.2H41.8286ZM43.4436 21.055H45.8186V17.545H44.0536C44.0436 17.745 44.0319 17.95 44.0186 18.16C44.0052 18.3667 43.9902 18.5733 43.9736 18.78C43.9569 18.9867 43.9386 19.185 43.9186 19.375C43.9019 19.5617 43.8819 19.735 43.8586 19.895C43.8219 20.175 43.7769 20.405 43.7236 20.585C43.6702 20.765 43.5769 20.9217 43.4436 21.055ZM50.4515 22.15C49.9115 22.15 49.4398 22.0283 49.0365 21.785C48.6331 21.5417 48.3198 21.2067 48.0965 20.78C47.8765 20.35 47.7665 19.8567 47.7665 19.3C47.7665 18.7333 47.8798 18.2367 48.1065 17.81C48.3331 17.3833 48.6481 17.05 49.0515 16.81C49.4548 16.57 49.9215 16.45 50.4515 16.45C50.9948 16.45 51.4681 16.5717 51.8715 16.815C52.2748 17.0583 52.5881 17.395 52.8115 17.825C53.0348 18.2517 53.1465 18.7433 53.1465 19.3C53.1465 19.86 53.0331 20.355 52.8065 20.785C52.5831 21.2117 52.2698 21.5467 51.8665 21.79C51.4631 22.03 50.9915 22.15 50.4515 22.15ZM50.4515 21.02C50.9315 21.02 51.2881 20.86 51.5215 20.54C51.7548 20.22 51.8715 19.8067 51.8715 19.3C51.8715 18.7767 51.7531 18.36 51.5165 18.05C51.2798 17.7367 50.9248 17.58 50.4515 17.58C50.1281 17.58 49.8615 17.6533 49.6515 17.8C49.4448 17.9433 49.2915 18.145 49.1915 18.405C49.0915 18.6617 49.0415 18.96 49.0415 19.3C49.0415 19.8233 49.1598 20.2417 49.3965 20.555C49.6365 20.865 49.9881 21.02 50.4515 21.02ZM56.5 22V16.115L55.15 16.94V15.61L56.5 14.8H57.73V22H56.5ZM59.4998 22L61.9798 15.94H58.8348V14.8H63.2698V15.94L60.7998 22H59.4998ZM64.3668 21.35V20.115H65.6018V21.35H64.3668ZM64.3768 18.485V17.25H65.6118V18.485H64.3768ZM69.4846 22.15C68.9746 22.15 68.5246 22.0417 68.1346 21.825C67.7446 21.605 67.4396 21.3 67.2196 20.91C67.0029 20.52 66.8946 20.07 66.8946 19.56V17.24C66.8946 16.73 67.0029 16.28 67.2196 15.89C67.4396 15.5 67.7446 15.1967 68.1346 14.98C68.5246 14.76 68.9746 14.65 69.4846 14.65C69.9946 14.65 70.4429 14.76 70.8296 14.98C71.2196 15.1967 71.5246 15.5 71.7446 15.89C71.9646 16.28 72.0746 16.73 72.0746 17.24V19.56C72.0746 20.07 71.9646 20.52 71.7446 20.91C71.5246 21.3 71.2196 21.605 70.8296 21.825C70.4429 22.0417 69.9946 22.15 69.4846 22.15ZM69.4846 21.005C69.7379 21.005 69.9679 20.945 70.1746 20.825C70.3812 20.7017 70.5446 20.5383 70.6646 20.335C70.7846 20.1283 70.8446 19.8983 70.8446 19.645V17.15C70.8446 16.8933 70.7846 16.6633 70.6646 16.46C70.5446 16.2533 70.3812 16.09 70.1746 15.97C69.9679 15.8467 69.7379 15.785 69.4846 15.785C69.2312 15.785 69.0012 15.8467 68.7946 15.97C68.5879 16.09 68.4246 16.2533 68.3046 16.46C68.1846 16.6633 68.1246 16.8933 68.1246 17.15V19.645C68.1246 19.8983 68.1846 20.1283 68.3046 20.335C68.4246 20.5383 68.5879 20.7017 68.7946 20.825C69.0012 20.945 69.2312 21.005 69.4846 21.005ZM75.5666 22.15C75.0566 22.15 74.6066 22.0417 74.2166 21.825C73.8266 21.605 73.5216 21.3 73.3016 20.91C73.0849 20.52 72.9766 20.07 72.9766 19.56V17.24C72.9766 16.73 73.0849 16.28 73.3016 15.89C73.5216 15.5 73.8266 15.1967 74.2166 14.98C74.6066 14.76 75.0566 14.65 75.5666 14.65C76.0766 14.65 76.5249 14.76 76.9116 14.98C77.3016 15.1967 77.6066 15.5 77.8266 15.89C78.0466 16.28 78.1566 16.73 78.1566 17.24V19.56C78.1566 20.07 78.0466 20.52 77.8266 20.91C77.6066 21.3 77.3016 21.605 76.9116 21.825C76.5249 22.0417 76.0766 22.15 75.5666 22.15ZM75.5666 21.005C75.8199 21.005 76.0499 20.945 76.2566 20.825C76.4633 20.7017 76.6266 20.5383 76.7466 20.335C76.8666 20.1283 76.9266 19.8983 76.9266 19.645V17.15C76.9266 16.8933 76.8666 16.6633 76.7466 16.46C76.6266 16.2533 76.4633 16.09 76.2566 15.97C76.0499 15.8467 75.8199 15.785 75.5666 15.785C75.3133 15.785 75.0833 15.8467 74.8766 15.97C74.6699 16.09 74.5066 16.2533 74.3866 16.46C74.2666 16.6633 74.2066 16.8933 74.2066 17.15V19.645C74.2066 19.8983 74.2666 20.1283 74.3866 20.335C74.5066 20.5383 74.6699 20.7017 74.8766 20.825C75.0833 20.945 75.3133 21.005 75.5666 21.005Z" fill="#3A3A3C"/>
<rect x="2.33911" y="0.5" width="86" height="35" rx="17.5" stroke="#6349DB"/>
</svg>
