<svg xmlns="http://www.w3.org/2000/svg" xmlns:xlink="http://www.w3.org/1999/xlink"><symbol id="close-button" viewBox="0 0 19 18"><g fill="none">
<path fill-rule="evenodd" clip-rule="evenodd" d="M14.3391 4.5L5.33911 13.5" stroke="currentColor" stroke-width="1.5" stroke-linecap="round" stroke-linejoin="round"/>
<path fill-rule="evenodd" clip-rule="evenodd" d="M5.33911 4.5L14.3391 13.5" stroke="currentColor" stroke-width="1.5" stroke-linecap="round" stroke-linejoin="round"/>
</g></symbol><symbol id="filters-open-button" viewBox="0 0 18 18"><g fill="none">
<path fill-rule="evenodd" clip-rule="evenodd" d="M3.75 9L3.75 3" stroke="currentColor" stroke-width="1.5" stroke-linecap="round"/>
<path fill-rule="evenodd" clip-rule="evenodd" d="M14.25 15L14.25 12.75" stroke="currentColor" stroke-width="1.5" stroke-linecap="round"/>
<path fill-rule="evenodd" clip-rule="evenodd" d="M3.75 15L3.75 12" stroke="currentColor" stroke-width="1.5" stroke-linecap="round"/>
<path fill-rule="evenodd" clip-rule="evenodd" d="M14.25 9.75L14.25 3" stroke="currentColor" stroke-width="1.5" stroke-linecap="round"/>
<path fill-rule="evenodd" clip-rule="evenodd" d="M9 5.25L9 3" stroke="currentColor" stroke-width="1.5" stroke-linecap="round"/>
<path fill-rule="evenodd" clip-rule="evenodd" d="M9 15L9 8.25" stroke="currentColor" stroke-width="1.5" stroke-linecap="round"/>
<circle fill-rule="evenodd" clip-rule="evenodd" cx="3.75" cy="10.5" r="1.5" stroke="currentColor" stroke-width="1.5" stroke-linecap="round"/>
<circle fill-rule="evenodd" clip-rule="evenodd" cx="9" cy="6.75" r="1.5" stroke="currentColor" stroke-width="1.5" stroke-linecap="round"/>
<circle fill-rule="evenodd" clip-rule="evenodd" cx="14.25" cy="11.25" r="1.5" stroke="currentColor" stroke-width="1.5" stroke-linecap="round"/>
</g></symbol><symbol id="list-button" viewBox="0 0 16 16"><g fill="none">
<path fill-rule="evenodd" clip-rule="evenodd" d="M1.33398 6.66797H14.6673" stroke="currentColor" stroke-width="1.5" stroke-linecap="round" stroke-linejoin="round"/>
<path fill-rule="evenodd" clip-rule="evenodd" d="M14.6673 13.332H1.33398" stroke="currentColor" stroke-width="1.5" stroke-linecap="round" stroke-linejoin="round"/>
</g></symbol><symbol id="map-button" viewBox="0 0 16 16"><g fill="none">
<path fill-rule="evenodd" clip-rule="evenodd" d="M13 8C13 11.2093 9.63256 13.4165 8.42475 14.105C8.15889 14.2565 7.84111 14.2565 7.57526 14.105C6.36745 13.4165 3 11.2093 3 8C3 5 5.42267 3 8 3C10.6667 3 13 5 13 8Z" stroke="currentColor" stroke-width="1.5"/>
<circle fill-rule="evenodd" clip-rule="evenodd" cx="8.00065" cy="7.9987" r="1.91667" stroke="currentColor" stroke-width="1.5"/>
</g></symbol></svg>